# xmcd CD database file
#
# Track frame offsets:
#	150
#	15198
#	37671
#	54901
#	76475
#	99635
#	114419
#	134374
#	154249
#	172165
#	188496
#	207038
#	223793
#	241394
#	256431
#
# Disc length: 3660 seconds
#
# Revision: 1
# Processed by: cddbd v1.5.1PL0 Copyright (c) Steve Scherf et al.
# Submitted via: CDex 1.51
#
DISCID=bf0e4a0f
DTITLE=Pinetop Perkins - The Complete High Tone Sessions
DYEAR=1998
DGENRE=Blues
TTITLE0=Down In Mississippi
TTITLE1=Song For Sunnyland
TTITLE2=Pintop´s Boogie Woogie
TTITLE3=Kansas City
TTITLE4=Little Girl, Little Girl
TTITLE5=Just A Little Bit
TTITLE6=How Long
TTITLE7=Miss Ida B
TTITLE8=I Almost Lost My Mind
TTITLE9=Big Fat Mama
TTITLE10=Five Long Years
TTITLE11=Take It Easy Baby
TTITLE12=Every Day I Have The Blues
TTITLE13=Pinetop´s Piano Shuffle
TTITLE14=Kidney Stew
EXTD=YEAR: 1998
EXTT0=
EXTT1=
EXTT2=
EXTT3=
EXTT4=
EXTT5=
EXTT6=
EXTT7=
EXTT8=
EXTT9=
EXTT10=
EXTT11=
EXTT12=
EXTT13=
EXTT14=
PLAYORDER=
